<svg width="144" height="40" viewBox="0 0 144 40" fill="none" xmlns="http://www.w3.org/2000/svg">
<g clip-path="url(#clip0_23_10)">
<path fill-rule="evenodd" clip-rule="evenodd" d="M100.981 15.1828H79.2406C75.6341 15.1828 74.0199 16.1916 73.3642 18.2345L71.3213 24.8423H93.0615C96.6681 24.8423 98.2822 23.8335 98.9379 21.7906L100.981 15.1828Z" fill="#109B47"/>
<path fill-rule="evenodd" clip-rule="evenodd" d="M26.4035 9.68473H22.2925C14.0706 9.68473 7.05923 30.3404 16.744 30.3152H22.9987C26.6052 30.3152 29.2534 31.6267 28.068 35.1324L26.4539 39.9747H19.8209L14.4489 39.9243C7.56365 39.8738 3.12481 36.4943 1.53591 31.3745C-0.204314 25.8259 2.26731 14.3001 9.32909 6.88524C13.4401 2.57251 19.1399 0 26.4539 0H39.947L37.8284 6.05296C36.4665 9.96216 33.667 9.68473 32.0781 9.68473H26.4035Z" fill="#109B47"/>
<path fill-rule="evenodd" clip-rule="evenodd" d="M95.6846 30.3404H73.9444C70.3379 30.3404 68.7237 31.3492 68.068 33.3921L66.0251 39.9999H87.7653C91.3719 39.9999 92.986 38.9911 93.6417 36.9482L95.6846 30.3404ZM106.025 0.0251694H84.2849C80.6783 0.0251694 79.0642 1.034 78.4085 3.07687L76.3656 9.68468H98.1058C101.712 9.68468 103.326 8.67585 103.982 6.63298L106.025 0.0251694Z" fill="#109B47"/>
<path fill-rule="evenodd" clip-rule="evenodd" d="M51.3467 9.65946H56.7692C61.3845 9.65946 60.3253 15.4098 57.9797 21.034C55.9117 25.9772 52.2799 30.3656 47.9419 30.3656H38.9129C35.3064 30.3656 33.6418 31.3744 32.9609 33.4173L30.7414 39.9999H37.3745L43.831 39.9495C49.5813 39.899 54.2471 39.4955 59.7452 34.5522C65.5459 29.3316 72.3051 15.7881 71.1449 7.96967C70.237 1.81584 66.9331 0.0251694 58.9381 0.0251694H44.3858L35.9117 24.8171H41.2837C44.4867 24.8171 46.1008 24.8675 47.8158 20.2774L51.3467 9.65946Z" fill="#109B47"/>
<path fill-rule="evenodd" clip-rule="evenodd" d="M97.3492 40H107.614L112.002 27.4148L116.593 23.5561L120.224 34.9306C121.334 38.4615 122.494 40 125.016 40H132.885L124.789 17.6545L144.26 0H131.674L119.821 12.5851C118.434 14.0479 117.046 15.4855 115.659 17.2257H115.533L121.41 0H111.145L97.3492 40Z" fill="#109B47"/>
</g>
<defs>
<clipPath id="clip0_23_10">
<rect width="144" height="40" fill="white"/>
</clipPath>
</defs>
</svg>
